<svg xmlns="http://www.w3.org/2000/svg" width="20.833" height="20.833" viewBox="0 0 20.833 20.833">
  <path id="Path_5" data-name="Path 5" d="M14.667,20.917H2.167A2.083,2.083,0,0,1,.083,18.833V6.333H2.167v12.5h12.5Zm4.167-4.167H6.333A2.083,2.083,0,0,1,4.25,14.667V2.167A2.083,2.083,0,0,1,6.333.083h12.5a2.083,2.083,0,0,1,2.083,2.083v12.5a2.083,2.083,0,0,1-2.083,2.083ZM6.333,2.167v12.5h12.5V2.167Zm7.292,10.417H11.542V9.458H8.417V7.375h3.125V4.25h2.083V7.375H16.75V9.458H13.625Z" transform="translate(-0.083 -0.083)" fill="#fff"/>
</svg>
