<svg width="17" height="21" viewBox="0 0 17 21" fill="none" xmlns="http://www.w3.org/2000/svg">
<path d="M15.8386 5.70937C16.2324 5.31562 16.449 4.79271 16.449 4.23646C16.449 3.68021 16.2324 3.15729 15.8386 2.76354L14.1865 1.11146C13.7928 0.717708 13.2699 0.501041 12.7136 0.501041C12.1574 0.501041 11.6345 0.717708 11.2417 1.11042L0.166748 12.151V16.75H4.76362L15.8386 5.70937ZM12.7136 2.58437L14.3667 4.23542L12.7105 5.88542L11.0584 4.23437L12.7136 2.58437ZM2.25008 14.6667V13.0156L9.58342 5.70521L11.2355 7.35729L3.90321 14.6667H2.25008ZM0.166748 18.8333H16.8334V20.9167H0.166748V18.8333Z" fill="white"/>
</svg>
