<svg xmlns="http://www.w3.org/2000/svg" width="17.188" height="21.875" viewBox="0 0 17.188 21.875">
  <path id="Path_6" data-name="Path 6" d="M16.531,2.906H14.188V2.125A1.567,1.567,0,0,0,12.625.563H6.375A1.567,1.567,0,0,0,4.813,2.125v.781H2.469A1.567,1.567,0,0,0,.906,4.469V20.875a1.567,1.567,0,0,0,1.563,1.563H9.5V20.875H2.469V4.469H4.813V6.813h9.375V4.469h2.344v8.594h1.563V4.469a1.567,1.567,0,0,0-1.563-1.562ZM12.625,5.25H6.375V2.125h6.25Z" transform="translate(-0.906 -0.563)" fill="#fff"/>
</svg>
